name ../VV_Laxity/vv_15.mot
datacolumns  10
datarows 29
range   21.00000000 21.28000000
cursor 1.0 1.0 0.0
keys m_key
wrap
enforce_loops no
enforce_constraints no
calc_derivatives -1.000000
event_color 0.000000 0.000000 0.000000
endheader
            time femur_r_force_vx femur_r_force_vy femur_r_force_vz femur_r_force_px femur_r_force_py femur_r_force_pz femur_r_torque_x femur_r_torque_y femur_r_torque_z 
     21.00000000       0.00000000       0.00000000       0.00000000      -0.02255621      -0.51082145       0.00000000       8.51058920      -2.28040550       0.00000000 
     21.01000000       0.00000000       0.00000000       0.00000000      -0.02255621      -0.51082145       0.00000000       8.52747066      -2.28492888       0.00000000 
     21.02000000       0.00000000       0.00000000       0.00000000      -0.02255621      -0.51082145       0.00000000       8.54424363      -2.28942318       0.00000000 
     21.03000000       0.00000000       0.00000000       0.00000000      -0.02255621      -0.51082145       0.00000000       8.56090762      -2.29388828       0.00000000 
     21.04000000       0.00000000       0.00000000       0.00000000      -0.02255621      -0.51082145       0.00000000       8.57746214      -2.29832405       0.00000000 
     21.05000000       0.00000000       0.00000000       0.00000000      -0.02255621      -0.51082145       0.00000000       8.59390671      -2.30273036       0.00000000 
     21.06000000       0.00000000       0.00000000       0.00000000      -0.02255621      -0.51082145       0.00000000       8.61024083      -2.30710708       0.00000000 
     21.07000000       0.00000000       0.00000000       0.00000000      -0.02255621      -0.51082145       0.00000000       8.62646403      -2.31145407       0.00000000 
     21.08000000       0.00000000       0.00000000       0.00000000      -0.02255621      -0.51082145       0.00000000       8.64257584      -2.31577122       0.00000000 
     21.09000000       0.00000000       0.00000000       0.00000000      -0.02255621      -0.51082145       0.00000000       8.65857579      -2.32005839       0.00000000 
     21.10000000       0.00000000       0.00000000       0.00000000      -0.02255621      -0.51082145       0.00000000       8.67446339      -2.32431546       0.00000000 
     21.11000000       0.00000000       0.00000000       0.00000000      -0.02255621      -0.51082145       0.00000000       8.69023820      -2.32854231       0.00000000 
     21.12000000       0.00000000       0.00000000       0.00000000      -0.02255621      -0.51082145       0.00000000       8.70589973      -2.33273880       0.00000000 
     21.13000000       0.00000000       0.00000000       0.00000000      -0.02255621      -0.51082145       0.00000000       8.72144754      -2.33690483       0.00000000 
     21.14000000       0.00000000       0.00000000       0.00000000      -0.02255621      -0.51082145       0.00000000       8.73688118      -2.34104026       0.00000000 
     21.15000000       0.00000000       0.00000000       0.00000000      -0.02255621      -0.51082145       0.00000000       8.75220017      -2.34514497       0.00000000 
     21.16000000       0.00000000       0.00000000       0.00000000      -0.02255621      -0.51082145       0.00000000       8.76740408      -2.34921884       0.00000000 
     21.17000000       0.00000000       0.00000000       0.00000000      -0.02255621      -0.51082145       0.00000000       8.78249247      -2.35326176       0.00000000 
     21.18000000       0.00000000       0.00000000       0.00000000      -0.02255621      -0.51082145       0.00000000       8.79746488      -2.35727361       0.00000000 
     21.19000000       0.00000000       0.00000000       0.00000000      -0.02255621      -0.51082145       0.00000000       8.81232088      -2.36125426       0.00000000 
     21.20000000       0.00000000       0.00000000       0.00000000      -0.02255621      -0.51082145       0.00000000       8.82706003      -2.36520361       0.00000000 
     21.21000000       0.00000000       0.00000000       0.00000000      -0.02255621      -0.51082145       0.00000000       8.84168190      -2.36912152       0.00000000 
     21.22000000       0.00000000       0.00000000       0.00000000      -0.02255621      -0.51082145       0.00000000       8.85618606      -2.37300790       0.00000000 
     21.23000000       0.00000000       0.00000000       0.00000000      -0.02255621      -0.51082145       0.00000000       8.87057209      -2.37686263       0.00000000 
     21.24000000       0.00000000       0.00000000       0.00000000      -0.02255621      -0.51082145       0.00000000       8.88483956      -2.38068559       0.00000000 
     21.25000000       0.00000000       0.00000000       0.00000000      -0.02255621      -0.51082145       0.00000000       8.89898806      -2.38447666       0.00000000 
     21.26000000       0.00000000       0.00000000       0.00000000      -0.02255621      -0.51082145       0.00000000       8.91301717      -2.38823575       0.00000000 
     21.27000000       0.00000000       0.00000000       0.00000000      -0.02255621      -0.51082145       0.00000000       8.92692647      -2.39196274       0.00000000 
     21.28000000       0.00000000       0.00000000       0.00000000      -0.02255621      -0.51082145       0.00000000       8.94071557      -2.39565752       0.00000000 
